HIERARCHY
ROOT hip
{
  OFFSET 0 0 0
  CHANNELS 6 Xposition Yposition Zposition Zrotation Yrotation Xrotation
  JOINT abdomen
  {
    OFFSET 0 20.6881 -0.73152
    CHANNELS 3 Zrotation Xrotation Yrotation
    JOINT chest
    {
      OFFSET 0 11.7043 -0.48768
      CHANNELS 3 Zrotation Xrotation Yrotation
      JOINT neck
      {
        OFFSET 0 22.1894 -2.19456
        CHANNELS 3 Zrotation Xrotation Yrotation
        JOINT head
        {
          OFFSET -0.24384 7.07133 1.2192
          CHANNELS 3 Zrotation Xrotation Yrotation
          JOINT leftEye
          {
            OFFSET 4.14528 8.04674 8.04672
            CHANNELS 3 Zrotation Xrotation Yrotation
            End Site
            {
              OFFSET 1 0 0
            }
          }
          JOINT rightEye
          {
            OFFSET -3.6576 8.04674 8.04672
            CHANNELS 3 Zrotation Xrotation Yrotation
            End Site
            {
              OFFSET 1 0 0
            }
          }
        }
      }
      JOINT rCollar
      {
        OFFSET -2.68224 19.2634 -4.8768
        CHANNELS 3 Zrotation Xrotation Yrotation
        JOINT rShldr
        {
          OFFSET -8.77824 -1.95073 1.46304
          CHANNELS 3 Zrotation Xrotation Yrotation
          JOINT rForeArm
          {
            OFFSET -28.1742 -1.7115 0.48768
            CHANNELS 3 Zrotation Xrotation Yrotation
            JOINT rHand
            {
              OFFSET -22.5879 0.773209 7.07136
              CHANNELS 3 Zrotation Xrotation Yrotation
              JOINT rThumb1
              {
                OFFSET -1.2192 -0.487915 3.41376
                CHANNELS 3 Zrotation Xrotation Yrotation
                JOINT rThumb2
                {
                  OFFSET -3.37035 -0.52449 3.41376
                  CHANNELS 3 Zrotation Xrotation Yrotation
                  End Site
                  {
                    OFFSET -1.78271 -1.18214 1.43049
                  }
                }
              }
              JOINT rIndex1
              {
                OFFSET -7.75947 0.938293 5.60832
                CHANNELS 3 Zrotation Xrotation Yrotation
                JOINT rIndex2
                {
                  OFFSET -2.54057 -0.884171 1.56538
                  CHANNELS 3 Zrotation Xrotation Yrotation
                  End Site
                  {
                    OFFSET -1.62519 -0.234802 1.16502
                  }
                }
              }
              JOINT rMid1
              {
                OFFSET -8.24714 1.18213 3.41376
                CHANNELS 3 Zrotation Xrotation Yrotation
                JOINT rMid2
                {
                  OFFSET -3.10165 -0.590103 1.0647
                  CHANNELS 3 Zrotation Xrotation Yrotation
                  End Site
                  {
                    OFFSET -2.48547 -0.328903 0.83742
                  }
                }
              }
              JOINT rRing1
              {
                OFFSET -8.82822 0.546677 1.51678
                CHANNELS 3 Zrotation Xrotation Yrotation
                JOINT rRing2
                {
                  OFFSET -2.60934 -0.819778 -0.0198488
                  CHANNELS 3 Zrotation Xrotation Yrotation
                  End Site
                  {
                    OFFSET -2.33842 -0.294052 0.168128
                  }
                }
              }
              JOINT rPinky1
              {
                OFFSET -8.27202 -0.0477905 -0.4584
                CHANNELS 3 Zrotation Xrotation Yrotation
                JOINT rPinky2
                {
                  OFFSET -1.82734 -0.647385 -0.700984
                  CHANNELS 3 Zrotation Xrotation Yrotation
                  End Site
                  {
                    OFFSET -1.69225 -0.51767 -0.607171
                  }
                }
              }
            }
          }
        }
      }
      JOINT lCollar
      {
        OFFSET 2.68224 19.2634 -4.8768
        CHANNELS 3 Zrotation Xrotation Yrotation
        JOINT lShldr
        {
          OFFSET 8.77824 -1.95073 1.46304
          CHANNELS 3 Zrotation Xrotation Yrotation
          JOINT lForeArm
          {
            OFFSET 28.1742 -1.7115 0.48768
            CHANNELS 3 Zrotation Xrotation Yrotation
            JOINT lHand
            {
              OFFSET 22.5879 0.773209 7.07136
              CHANNELS 3 Zrotation Xrotation Yrotation
              JOINT lThumb1
              {
                OFFSET 1.2192 -0.487915 3.41376
                CHANNELS 3 Zrotation Xrotation Yrotation
                JOINT lThumb2
                {
                  OFFSET 3.37035 -0.52449 3.41376
                  CHANNELS 3 Zrotation Xrotation Yrotation
                  End Site
                  {
                    OFFSET 1.78271 -1.18214 1.43049
                  }
                }
              }
              JOINT lIndex1
              {
                OFFSET 7.75947 0.938293 5.60832
                CHANNELS 3 Zrotation Xrotation Yrotation
                JOINT lIndex2
                {
                  OFFSET 2.54057 -0.884171 1.56538
                  CHANNELS 3 Zrotation Xrotation Yrotation
                  End Site
                  {
                    OFFSET 1.62519 -0.234802 1.16502
                  }
                }
              }
              JOINT lMid1
              {
                OFFSET 8.24714 1.18213 3.41376
                CHANNELS 3 Zrotation Xrotation Yrotation
                JOINT lMid2
                {
                  OFFSET 3.10165 -0.590103 1.0647
                  CHANNELS 3 Zrotation Xrotation Yrotation
                  End Site
                  {
                    OFFSET 2.48547 -0.328903 0.83742
                  }
                }
              }
              JOINT lRing1
              {
                OFFSET 8.82822 0.546677 1.51678
                CHANNELS 3 Zrotation Xrotation Yrotation
                JOINT lRing2
                {
                  OFFSET 2.60934 -0.819778 -0.0198488
                  CHANNELS 3 Zrotation Xrotation Yrotation
                  End Site
                  {
                    OFFSET 2.33842 -0.294052 0.168128
                  }
                }
              }
              JOINT lPinky1
              {
                OFFSET 8.27202 -0.0477905 -0.4584
                CHANNELS 3 Zrotation Xrotation Yrotation
                JOINT lPinky2
                {
                  OFFSET 1.82734 -0.647385 -0.700984
                  CHANNELS 3 Zrotation Xrotation Yrotation
                  End Site
                  {
                    OFFSET 1.69225 -0.51767 -0.607171
                  }
                }
              }
            }
          }
        }
      }
    }
  }
  JOINT rButtock
  {
    OFFSET -8.77824 4.35084 1.2192
    CHANNELS 3 Zrotation Xrotation Yrotation
    JOINT rThigh
    {
      OFFSET 0 -1.70687 -2.19456
      CHANNELS 3 Zrotation Xrotation Yrotation
      JOINT rShin
      {
        OFFSET 0 -36.8199 0.73152
        CHANNELS 3 Zrotation Xrotation Yrotation
        JOINT rFoot
        {
          OFFSET 0.73152 -45.1104 -5.12064
          CHANNELS 3 Zrotation Xrotation Yrotation
          End Site
          {
            OFFSET -1.1221 -3.69964 12.103
          }
        }
      }
    }
  }
  JOINT lButtock
  {
    OFFSET 8.77824 4.35084 1.2192
    CHANNELS 3 Zrotation Xrotation Yrotation
    JOINT lThigh
    {
      OFFSET 0 -1.70687 -2.19456
      CHANNELS 3 Zrotation Xrotation Yrotation
      JOINT lShin
      {
        OFFSET 0 -36.8199 0.73152
        CHANNELS 3 Zrotation Xrotation Yrotation
        JOINT lFoot
        {
          OFFSET -0.73152 -45.1104 -5.12064
          CHANNELS 3 Zrotation Xrotation Yrotation
          End Site
          {
            OFFSET 1.1221 -3.69964 12.103
          }
        }
      }
    }
  }
}
MOTION
Frames:	5
Frame Time:	0.03333
0.0 0.0 0.0 0.0 0.0 0.0 0.0 0.0 0.0 0.0 0.0 0.0 0.0 0.0 0.0 0.0 0.0 0.0 0.0 0.0 0.0 0.0 0.0 0.0 0.0 0.0 0.0 0.0 0.0 0.0 0.0 0.0 0.0 0.0 0.0 0.0 0.0 0.0 0.0 0.0 0.0 0.0 0.0 0.0 0.0 0.0 0.0 0.0 0.0 0.0 0.0 0.0 0.0 0.0 0.0 0.0 0.0 0.0 0.0 0.0 0.0 0.0 0.0 0.0 0.0 0.0 0.0 0.0 0.0 0.0 0.0 0.0 0.0 0.0 0.0 0.0 0.0 0.0 0.0 0.0 0.0 0.0 0.0 0.0 0.0 0.0 0.0 0.0 0.0 0.0 0.0 0.0 0.0 0.0 0.0 0.0 0.0 0.0 0.0 0.0 0.0 0.0 0.0 0.0 0.0 0.0 0.0 0.0 0.0 0.0 0.0 0.0 0.0 0.0 0.0 0.0 0.0 0.0 0.0 0.0 0.0 0.0 0.0 0.0 0.0 0.0 0.0 0.0 0.0 0.0 0.0 0.0
0.2222 63.1426 -0.0844 0.177913 26.287941 -0.968991 1.064937 -1.012663 -133.553911 2.735545 8.009762 -17.950413 -9.501082 -11.909867 -81.03192 45.609796 14.32746 88.875553 -167.473831 -2.004097 -18.110302 175.194345 2.580331 -56.446007 -21.788348 -89.541362 -120.733439 -161.042411 24.695897 167.326913 -2.251655 -44.237445 155.956451 176.867503 21.493367 70.749984 174.030499 8.71788 40.932066 -16.071921 71.444183 168.203943 -35.39086 -53.84818 -131.424125 -9.916545 29.491929 -114.131539 -73.220648 -12.917009 -157.687183 26.584684 -22.769236 102.043214 4.99399 10.364576 -86.534449 -159.162154 63.366027 168.861158 -137.144778 16.430633 -79.652269 -37.152927 -15.8624 -9.114299 80.508453 -19.228551 -163.501167 81.642693 77.377243 -93.345546 177.796932 7.168728 15.915926 -89.277285 -69.121845 -4.040219 -112.055223 4.023403 -60.425862 -79.365498 -70.417378 -84.814516 -168.495336 29.705721 -148.897184 -167.243496 -32.317602 126.158832 -114.483628 -1.939081 -158.668441 21.667537 50.691553 110.003961 84.662368 21.676577 60.174009 95.401309 -9.312161 114.77162 170.812968 30.370442 78.073453 46.73277 79.240054 -107.000513 -30.65604 53.460742 -143.583117 0.720955 57.397421 -179.450888 -5.326831 1.858247 -102.397793 61.951677 -52.026736 -114.847785 27.021338 -38.178497 39.525448 1.690581 46.932507 -2.313535 5.556332 -1.137907 72.364347 -52.08543 -54.101296 119.645168
2.4327 59.746900000000004 -2.2901000000000002 7.835241 -10.477364 2.279296 -11.662213 13.986372 2.378314 1.93376 -11.220456 5.726541 -1.161502 27.188743 -47.688651 23.317924 -25.300113 2.740664 60.839874 20.474764 34.194063 19.498836 0.012515 0.072838 -160.213215 -6.732562 172.859627 -73.539725 -63.139748 -78.237443 24.519979 40.320887 -100.030793 172.858043 -11.506199 153.522873 -65.909034 50.743492 47.478967 7.738935 -30.104962 0.146024 -172.75734 -23.115464 118.417703 -176.630522 30.337384 103.771654 -149.98496 26.40278 137.349965 -0.67544 -10.392958 5.927433 -174.106051 45.401661 176.664316 -45.205275 25.111231 10.370831 -106.704361 0.947262 -140.803615 -54.458506 64.264252 167.498878 12.770625 19.988317 -26.240387 -78.38735 19.578045 -2.355311 -176.26361 4.827045 -55.064383 161.671731 31.431249 -132.225592 -8.443851 -12.489629 1.011008 124.370371 -43.132487 -119.663895 33.985788 50.775759 -47.304125 177.738547 -61.077652 168.334562 10.808367 28.275278 5.293424 -15.925039 -60.407982 -33.230545 137.702749 36.506453 -149.890718 116.539705 -10.385376 -161.00543 1.392936 -26.712402 -17.331155 140.059377 3.457506 73.307642 -11.422283 18.691226 0.0 -78.159985 -61.604389 -180.0 -80.644708 2.842929 -158.550739 -115.50832 -50.498156 155.823027 155.330082 71.951222 25.784432 -132.118449 64.877916 -44.661912 -16.324446 57.536922 146.909059 -174.478456 27.813443 85.194425
2.1454999999999997 56.5716 -2.3087 8.47183 -17.409088 4.197958 -9.966641 5.087039 -91.431727 2.463262 1.879489 101.348086 7.870833 36.177718 176.841723 15.339668 49.647244 116.983487 30.097025 -4.135106 -15.295514 20.188984 3.739606 20.782291 -1.04497 22.906757 -2.849213 -107.204919 37.498093 93.889905 93.184269 37.874284 -104.404627 -167.130366 47.839916 150.905303 -152.956381 2.787061 104.326403 -6.546569 -43.856764 -20.698183 -18.548732 7.774913 -0.0601 0.893464 45.778704 3.888624 -144.24769 -35.929438 144.140227 -150.906829 -41.300263 118.387622 -96.165692 -51.170868 -87.407677 -179.093809 80.571148 -119.363329 82.667313 75.35783 -9.745596 34.39067 8.224196 -43.244263 80.269318 59.731136 -90.206976 101.875029 1.340129 -126.581272 176.161613 10.467215 81.949276 0.15768 -23.441316 4.97032 114.702585 40.513336 -39.894491 -11.504372 -46.730206 -47.685124 -1.437796 -13.397989 -11.116747 -30.211806 75.807097 15.167296 61.487973 66.358415 -37.063074 -161.898412 1.061819 -150.339734 169.991746 76.471416 -169.059747 -12.276867 -12.721678 -15.121454 5.837193 -17.404669 0.152837 142.725238 48.860418 66.134382 -135.148641 66.848943 -34.015249 131.222771 -6.47675 -93.793201 -71.842181 -13.203609 47.967299 -167.112408 -54.094646 -42.669221 -64.8267 62.848614 -59.448294 80.70456 51.487889 -180.0 61.056409 -10.161124 99.811884 -91.187439 7.970255 -168.466165
0.7979 54.0442 -3.5566 7.759786 -23.594281 5.493093 -14.42944 7.376447 -104.048868 4.057733 10.13228 118.534553 3.007318 13.937198 -3.781815 -11.265939 -29.86006 -52.194882 58.043592 -21.362886 -37.552798 -15.956298 -0.852441 6.076671 -153.683128 -28.150096 179.484455 -100.006948 -35.792893 -132.400235 17.264517 41.631112 -69.633357 155.878329 -34.021447 143.921241 -154.406764 3.985165 106.914035 -43.472047 -52.301463 -50.33105 -2.148253 -5.675621 -1.996845 -58.491145 33.869055 64.513404 -128.673552 17.430809 140.753043 -19.356244 78.556907 57.485235 -28.477235 5.338691 -14.517353 -111.741061 -25.782771 176.041603 -142.14653 13.154229 -148.647788 24.677402 -42.264325 36.696424 166.857579 -51.261149 -153.586592 141.711198 -85.539058 84.101238 -24.461549 76.959399 161.968035 152.448092 16.973132 -130.124398 177.389807 6.533327 -78.769986 -159.262074 -3.039537 -91.902397 35.226379 17.763808 -36.530255 147.140174 -64.915853 -107.198055 160.953816 -29.585997 -161.048979 74.222529 -64.353973 109.272066 149.390365 2.015845 175.043736 164.122973 35.39124 176.68118 136.919041 44.478573 139.272744 133.967033 26.1197 98.034444 13.096784 -14.007161 -0.0 -70.792568 -50.366039 42.727069 88.668234 -1.211971 91.800537 -144.654832 19.639215 -179.877073 72.676175 16.493259 27.50861 -55.026246 20.664714 25.410656 36.469972 31.635203 -108.194414 46.175237 46.592085 43.184536
